# xmcd
#
# Track frame offsets:
# 150
# 23305
# 40537
# 61965
# 88130
# 105412
# 121027
# 138702
# 160770
# 178952
# 205575
# 236087
# 252137
# 270252
# 292117
# 310680
# 328260
#
# Disc length: 4681 seconds
#
# Revision: 1
# Processed by: cddbd v1.5.2PL0 Copyright (c) Steve Scherf et al.
# Submitted via: TinyPlayer 2.8
#
DISCID=e2124711
DTITLE=Elton John - Love Songs
DYEAR=1995
DGENRE=Pop
TTITLE0=Elton John - Sacrifice
TTITLE1=Elton John - Candle in the Wind
TTITLE2=Elton John - I Guess That's Why They Call It the Blues
TTITLE3=George Michael with Elton John - Don't Let the Sun Go Down on Me
TTITLE4=Elton John - Sorry Seems to Be the Hardest Word
TTITLE5=Elton John - Blue Eyes
TTITLE6=Elton John - Daniel
TTITLE7=Elton John - Nikita
TTITLE8=Elton John - Your Song
TTITLE9=Elton John - The One
TTITLE10=Elton John - Someone Saved My Life Tonight
TTITLE11=Elton John featuring Kiki Dee - True Love
TTITLE12=Elton John - Can You Feel the Love Tonight?
TTITLE13=Elton John - Circle of Life
TTITLE14=Elton John - Blessed
TTITLE15=Elton John - Please
TTITLE16=Elton John - Song for Guy
EXTD=Location:  - UPC: 731452878823 - Catalogue number: 528 788-2 - Label: The Rocket Record Company - ASIN: B000024JRU - Release Date: 1995 11 01 - Discogs: a57103,m101251,r523459 - MUSICBRAINZ_ALBUMID: 4b1acaeb-9507-45aa-b9bc-03cbdd6e1040 - AMG:MN0000796734,M
EXTD=W0000650321;
EXTT0=
EXTT1=
EXTT2=
EXTT3=
EXTT4=
EXTT5=
EXTT6=
EXTT7=
EXTT8=
EXTT9=
EXTT10=
EXTT11=
EXTT12=
EXTT13=
EXTT14=
EXTT15=
EXTT16=
PLAYORDER=
